<svg width="15" height="15" viewBox="0 0 15 15" fill="none" xmlns="http://www.w3.org/2000/svg">
<path fill-rule="evenodd" clip-rule="evenodd" d="M2.2315 4.24908C2.27281 4.20766 2.32189 4.17479 2.37593 4.15237C2.42996 4.12995 2.48789 4.11841 2.54639 4.11841C2.60489 4.11841 2.66282 4.12995 2.71686 4.15237C2.77089 4.17479 2.81997 4.20766 2.86129 4.24908L7.8836 9.27228L12.9059 4.24908C12.9473 4.20772 12.9964 4.17492 13.0504 4.15254C13.1044 4.13016 13.1623 4.11864 13.2208 4.11864C13.2793 4.11864 13.3372 4.13016 13.3912 4.15254C13.4453 4.17492 13.4944 4.20772 13.5357 4.24908C13.5771 4.29043 13.6099 4.33952 13.6322 4.39355C13.6546 4.44758 13.6661 4.50549 13.6661 4.56397C13.6661 4.62245 13.6546 4.68036 13.6322 4.73439C13.6099 4.78842 13.5771 4.83751 13.5357 4.87887L8.1985 10.2161C8.15718 10.2575 8.1081 10.2904 8.05407 10.3128C8.00003 10.3352 7.9421 10.3467 7.8836 10.3467C7.8251 10.3467 7.76717 10.3352 7.71314 10.3128C7.6591 10.2904 7.61002 10.2575 7.56871 10.2161L2.2315 4.87887C2.19008 4.83755 2.15722 4.78847 2.13479 4.73444C2.11237 4.6804 2.10083 4.62247 2.10083 4.56397C2.10083 4.50547 2.11237 4.44754 2.13479 4.39351C2.15722 4.33947 2.19008 4.29039 2.2315 4.24908Z" fill="#2E3139"/>
</svg>
