<svg width="29" height="29" viewBox="0 0 29 29" fill="none" xmlns="http://www.w3.org/2000/svg">
<path d="M14.2325 24.907C20.1278 24.907 24.9069 20.1279 24.9069 14.2326C24.9069 8.33727 20.1278 3.55817 14.2325 3.55817C8.3372 3.55817 3.55811 8.33727 3.55811 14.2326C3.55811 20.1279 8.3372 24.907 14.2325 24.907Z" stroke="#2E3139" stroke-linecap="round" stroke-linejoin="round"/>
<path d="M4.26978 10.6744H24.1954" stroke="#2E3139" stroke-linecap="round" stroke-linejoin="round"/>
<path d="M4.26978 17.7907H24.1954" stroke="#2E3139" stroke-linecap="round" stroke-linejoin="round"/>
<path d="M13.6394 3.55817C11.6413 6.76003 10.582 10.4584 10.582 14.2326C10.582 18.0067 11.6413 21.7051 13.6394 24.907" stroke="#2E3139" stroke-linecap="round" stroke-linejoin="round"/>
<path d="M14.8254 3.55817C16.8235 6.76003 17.8828 10.4584 17.8828 14.2326C17.8828 18.0067 16.8235 21.7051 14.8254 24.907" stroke="#2E3139" stroke-linecap="round" stroke-linejoin="round"/>
</svg>
